<svg height="100" viewBox="0 0 100 100" width="100" xmlns="http://www.w3.org/2000/svg" xmlns:xlink="http://www.w3.org/1999/xlink"><clipPath id="a"><path d="m50-.001c27.614 0 50 22.386 50 50s-22.386 50.001-50 50.001-50-22.387-50-50.001 22.386-50 50-50z"/></clipPath><path d="m50-.001c27.614 0 50 22.386 50 50s-22.386 50.001-50 50.001-50-22.387-50-50.001 22.386-50 50-50z" fill="#f4f0d3"/><g clip-path="url(#a)"><path d="m99.484 85.309-55.819-55.82 44.663-44.663-5.656-5.657-44.663 44.663-34.82-34.819-5.674 5.674 67.818 67.819-47.661 47.664 5.656 5.657 47.663-47.663 22.819 22.818z" fill="#efc75e"/><path d="m63.004 33.866-.008-12.859 27 26.156-.023 12.827z" fill="#ccc7a5"/><path d="m126.996 22.979-.055-13.003-36.941 37.023v13.031z" fill="#dad5b1"/><path d="m62.91 21.022 32.18-32.671 27 27.562-32.086 32.046z" fill="#e4dfbd"/><path d="m38.002 20.992c10.488 0 18.99 8.466 18.99 18.909 0 .203-.093 5.063-1.726 8.528-4.678 10.741-17.248 22.64-17.265 22.578-.02.041-12.536-11.787-17.236-22.514-1.395-2.541-1.755-8.178-1.755-8.593.001-10.442 8.504-18.908 18.992-18.908z" fill="#e2574c"/><path d="m38 29.999c-5.522 0-10 4.477-10 10 0 5.522 4.478 10 10 10s10-4.478 10-10c0-5.523-4.478-10-10-10zm0 16.001c-3.313 0-6-2.687-6-6s2.687-6 6-6 6 2.686 6 6-2.687 6-6 6z" fill="#fff"/></g></svg>