<?xml version="1.0" encoding="utf-8"?>
<svg xmlns="http://www.w3.org/2000/svg" x="0px" y="0px" width="250px" height="240.3px">
<path fill="#E0C09F" d="M181.2,114.9c0,0-2.4,1.9-4.3,3.5c-3.1,0.5-11.4,2-11.4,2s-6.5,5.2-8.2,6.6c-2.1,0.9-9.1,3.7-9.1,3.7
	s-7,3.8-8.6,4.7c-1.8,0.5-11.2,3.3-11.2,3.3s-3.3,2-5.4,3.3c-2.2-0.7-3.7-1.2-4.5-1.5c-1.3-0.7-7.4-4-8-4.3c-0.6-0.4-9.3-6-9.3-6
	s-9.4-4-10.3-4.4c-0.9-0.5-8.8-5-8.8-5l-15.1-7.9c0,0-8.3,5.7-9.9,6.8c-2.1,0.7-9,2.9-9,2.9s-6,3.5-8,4.7
	c-2.4,0.5-11.3,2.4-11.3,2.4s-6.4,4.7-8.2,6c-2.2,0.8-8.9,3-8.9,3l-10.1,4.2l8.2,19.6c0,0,8.8-3.7,9.4-3.9
	c0.6-0.2,11.3-3.8,11.3-3.8s5.1-3.7,7.2-5.3c2.8-0.6,10.2-2.2,10.2-2.2s7.3-4.3,8.9-5.2c1.7-0.6,9.8-3.1,9.8-3.1s1.8-1.3,2-1.4
	c1.7,0.9,3.4,1.8,3.5,1.8c0.3,0.2,9.5,5.4,9.5,5.4s8.4,3.6,9.8,4.2c1.3,0.8,8.5,5.5,8.5,5.5L110,160l15.6,5.1c0,0,9.6-5.9,11.4-7
	c2.1-0.6,10.6-3.1,10.6-3.1s8.7-4.7,9.6-5.2c1-0.4,10.9-4.4,10.9-4.4s4.2-3.4,6.4-5.1c3.1-0.5,11.4-2,11.4-2s2.9-2.3,3.1-2.5
	c1.7,0.9,4.3,2.3,4.3,2.3s7.8,3,9.9,3.8c1.7,1.3,8,6,8,6s9.4,4.6,10,4.9c0.6,0.3,8.7,5,8.7,5l9.7,3.7l7.6-19.8c0,0-6.9-2.6-8.2-3.1
	c-1.2-0.7-7.9-4.6-7.9-4.6s-7.3-3.5-8.8-4.3c-1.3-1-8.7-6.6-8.7-6.6s-10.3-4-11.4-4.4c-1-0.6-15.4-8.3-15.4-8.3L181.2,114.9z"/>
<path fill="#CDA177" d="M184.6,150.6l-10,3.2c0,0-7.8,4.5-8.9,5.2c-1.2,0.5-8.9,3.7-8.9,3.7l-11,5.4c0,0-4.5,3.9-6.6,5.8
	c-3.1,0.7-9.5,2.3-9.5,2.3s-3.4,1.3-5.9,2.3c-1.8-0.5-2.6-0.8-3.8-1.1c-2-1.5-8.3-6-8.3-6s-10.7-2.7-12.6-3.2
	c-1.4-0.8-5.5-2.9-7.1-3.7c-1.5-1.4-7.5-6.8-7.5-6.8l-15.9-8l-14.9,5.7c0,0-4.7,4.1-6.5,5.7c-2.6,0.9-7.9,2.7-7.9,2.7
	c0,0-11.1,3.7-11.1,3.7l-9.6,6c0,0-4.3,3.1-6.4,4.6c-2.8,0.6-9.1,2-9.1,2l4.6,20.7l13.4-3c0,0,8.9-6.4,9.4-6.8
	c0.5-0.3,5.2-3.3,6.8-4.3c1.9-0.6,8.6-2.9,8.6-2.9c0.1,0,12-4,12-4s5.1-4.4,6.9-6c0.8-0.3,1.3-0.5,2.6-1c2.4,1.2,3.9,2,4.9,2.5
	c1.6,1.4,7.4,6.8,7.4,6.8l11.8,6.1c0,0,8.2,2.1,11,2.8c2.1,1.5,7.9,5.8,7.9,5.8l14.3,4.2c0,0,10.2-4,11.3-4.4
	c1.2-0.3,13.2-3.2,13.2-3.2s6.9-6,8.4-7.3c1.8-0.9,7.4-3.6,7.9-3.9c0.6-0.2,9.6-4,9.6-4s6.6-3.8,8.1-4.7c0.8-0.3,2-0.6,3.9-1.3
	c2.9,1.3,5.7,2.6,6.3,2.9c0.8,0.5,7,4.2,8,4.8c1,0.8,8.8,7,8.8,7l11.6,4.7c0,0,4.4,1.6,7.2,2.6c1.6,2,3.6,4.4,3.6,4.4l16.4-13.5
	l-7.3-8.8c0,0-11.9-4.3-12.3-4.5c-0.3-0.1-6.3-2.6-8.4-3.4c-1.7-1.4-7.5-6-7.5-6l-10.2-6.1l-14.8-6.9L184.6,150.6z"/>
<path fill="#A1561C" d="M185.9,189.6l-10.1,1.5l-10.6,5.3l-9.8,5c0,0-4.8,4.2-6.8,5.9c-2.7,0.8-10,3.1-10,3.1s-6.2,4.1-8.3,5.5
	c-1.6,0.4-3.2,0.8-5.5,1.3c-2.6-0.9-5.5-2-6-2.2c-0.6-0.3-5.8-2.7-7.9-3.6c-1.7-1.5-8.2-7.3-8.2-7.3s-9.6-3-11.8-3.7
	c-1.8-1.2-8.6-5.6-8.6-5.6L67.7,190l-11.6,3.4c0,0-7.5,4.5-8.4,5.1c-1,0.4-9,4.1-9,4.1s-5.4,3-7.4,4.1c-2.4,0.5-10.9,2.2-10.9,2.2
	l-10.7,5.7l-8.8,6l11.9,17.6c0,0,7-4.8,7.8-5.3c0.7-0.4,5.1-2.7,7-3.7c2.3-0.5,11.1-2.2,11.1-2.2s8.9-5,9.5-5.4
	c0.7-0.3,9.3-4.3,9.3-4.3s5.4-3.3,7.1-4.3c0.8-0.2,1.3-0.4,2.6-0.8c2.5,0.8,4.5,1.5,5.8,1.9c1.7,1.1,8.7,5.7,8.7,5.7
	s7.4,2.3,10.2,3.2c2.1,1.8,7.2,6.4,7.2,6.4l11.6,5.2l12.8,4.6l15.3-3.7c0,0,7-4.6,8.8-5.8c2.2-0.7,11.4-3.5,11.4-3.5
	s6.7-5.9,8.2-7.2c1.7-0.9,7.3-3.7,7.4-3.8c0.1,0,5.3-2.7,7.4-3.7c1.5-0.2,2.9-0.4,4.7-0.7c2.2,0.6,5.5,1.4,7.4,1.9
	c1.9,1.3,6.5,4.2,7,4.6c0.6,0.5,8.4,6.4,8.4,6.4l9.4,5.8l9.2,4.8l8.6,4l9-19.2c0,0-7.8-3.6-8.2-3.8c-0.4-0.2-7.5-3.9-8.1-4.2
	c-0.6-0.4-7-4.3-7.8-4.8c-0.8-0.6-8.2-6.3-8.2-6.3l-10.6-6.9l-14.9-3.8L185.9,189.6z"/>
<path d="M83.3,32.7c0.2-1.1,0.1-15,0.1-15.9v-3.6c0-1.3-0.1-10.7-0.2-11.5c4.4,0,9.6,0.1,13.3,0.6c6.3,0.8,9.8,3.3,9.8,7.2
	c0,3.7-2.4,6.5-5.9,8.8c1.2,1.5,8.5,9.6,9.6,10.8l-6.2,4.8C103,32.7,94,20,92.7,18.1c2.1-1.1,5.7-3.7,5.7-7.2c0-2.1-1.5-4.4-7.7-4.4
	v12.8c0,1.7,0.1,12.8,0.2,13.5H83.3z"/>
<path d="M115.9,32.7c0.1-1.9,0.1-12.2,0.1-13.4v-4.8c0-0.7-0.1-11.9-0.2-12.9h7.8c0,0.8-0.2,7.7-0.2,13v4.8c0,4.4,0.1,12.3,0.2,13.3
	H115.9z"/>
<path d="M149.2,1c9.5,0,16.2,5.6,16.2,15.7c0,6.3-4.6,16.8-18.3,16.8c-9.9,0-15.9-6.6-15.9-15.2C131.1,9.7,137.6,1,149.2,1
	 M147.9,27.8c4.1,0,9.2-3.2,9.2-10.9c0-6.7-3.8-10.2-8.5-10.2c-5.2,0-9.2,4.4-9.2,11.2C139.4,24,142.9,27.8,147.9,27.8"/>
<path d="M31.1,67.6c0.1-1.9,0.1-12.2,0.1-13.4v-4.8c0-0.7-0.1-11.9-0.2-12.9h7.9c-0.1,0.8-0.2,9.5-0.2,10.3v2.4l14.8-0.8v-2.5
	c0-0.7-0.1-8.4-0.2-9.4h7.9C61.1,37.6,61,49.7,61,50.8v4.4c0,0.6,0.1,11.6,0.2,12.4h-7.9c0.1-1.5,0.2-8.9,0.2-9.8V54l-14.8,0.8v2.1
	c0,2,0.1,9.7,0.2,10.7H31.1z"/>
<path d="M86.7,35.8c9.5,0,16.2,5.6,16.2,15.7c0,6.3-4.6,16.8-18.3,16.8c-9.9,0-15.9-6.6-15.9-15.2C68.6,44.5,75.1,35.8,86.7,35.8
	 M85.4,62.6c4.1,0,9.2-3.2,9.2-10.9c0-6.7-3.8-10.2-8.5-10.2c-5.1,0-9.2,4.4-9.2,11.2C76.8,58.9,80.4,62.6,85.4,62.6"/>
<path d="M108.9,67.6c0.1-1.6,0.5-8.3,0.8-15.2c0.4-6.9,0.7-14.1,0.9-16.8l0.4-0.1c4.1,3.3,21.2,18.4,22.6,19.7
	c0-1.8,0.1-17.2,0.2-18.9l7,0.2c-0.2,2.6-0.5,8.5-0.8,14.9c-0.4,6.3-0.6,13-0.7,16.9l-0.4,0.1c-3.5-2.5-22.1-18.9-22.6-19.7h-0.1
	c0,1.5-0.2,17.7-0.2,19.1L108.9,67.6z"/>
<path d="M150.2,48.2c0-0.9,0-10.5-0.2-11.7c5.8,0,10.6,0.1,14.6,0.7c12.7,1.7,14.7,7.8,14.7,11.2c0,13.8-16.8,19.5-29.3,19.5
	c0.2-2,0.3-12.9,0.3-14.1V48.2z M157.6,61.4c7.3-0.9,13.5-5.5,13.5-11.7c0-5.8-6.1-7.7-13.5-7.7V61.4z"/>
<path d="M201.4,35.8c9.5,0,16.2,5.6,16.2,15.7c0,6.3-4.6,16.8-18.3,16.8c-9.9,0-15.9-6.6-15.9-15.2
	C183.3,44.5,189.8,35.8,201.4,35.8 M200.1,62.6c4.1,0,9.2-3.2,9.2-10.9c0-6.7-3.8-10.2-8.5-10.2c-5.2,0-9.2,4.4-9.2,11.2
	C191.5,58.9,195.1,62.6,200.1,62.6"/>
<path d="M48.3,102.7c-1.5,0.2-3.2,0.4-5.5,0.4c-14.7,0-19.4-8-19.4-13.2c0-7.3,6.6-16.2,22-19.3l1.4,6.6
	c-9.6,1.5-15.2,6.3-15.2,11.8c0,4.2,3.9,7.9,11.7,7.9c1.8,0,3.3-0.2,4.6-0.4L48.3,102.7z"/>
<path d="M70.4,70.6c9.5,0,16.2,5.6,16.2,15.7c0,6.3-4.6,16.8-18.3,16.8c-9.9,0-15.9-6.6-15.9-15.2C52.3,79.4,58.8,70.6,70.4,70.6
	 M69.1,97.5c4.1,0,9.2-3.2,9.2-10.9c0-6.7-3.8-10.2-8.5-10.2c-5.1,0-9.2,4.4-9.2,11.2C60.6,93.7,64.1,97.5,69.1,97.5"/>
<path d="M111.7,102.9c-0.9,0-15.2-0.4-17.8-0.4c0.2-2.3,0.2-11.8,0.2-12.8v-5.9c0-0.7-0.1-11.6-0.2-12.4h7.9
	c-0.1,1-0.3,9.9-0.3,15.4v9.9c1.1,0,6.2,0,10-0.2L111.7,102.9z"/>
<path d="M136.6,102.9c-0.9,0-15.2-0.4-17.8-0.4c0.2-2.3,0.2-11.8,0.2-12.8v-5.9c0-0.7-0.1-11.6-0.2-12.4h7.9
	c-0.1,1-0.3,9.9-0.3,15.4v9.9c1.1,0,6.3,0,10-0.2L136.6,102.9z"/>
<path d="M161.4,102.9c-1.2,0-16-0.4-17.7-0.4c0.1-2.3,0.1-11.8,0.1-12.8v-5.9c0-0.7-0.1-11.3-0.1-12.4c1.9,0,15.4-0.7,16.9-0.8
	l0.2,5.7c-1.5,0-8.8,0.2-9.5,0.2v8c0.8,0,6-0.2,8.1-0.4l0.1,5.5c-1.1,0-7.3-0.2-8.2-0.2V97c1.1,0,7.4,0.1,10-0.1L161.4,102.9z"/>
<path d="M193.8,95.6c0,1.7,0.1,5.6,0.1,6.4c-1.5,0.5-5.6,1.2-9.7,1.1c-11.7-0.1-17.4-5.9-17.4-13c0-5.2,4.9-15.4,22.3-19.6l1.6,6.6
	c-7.6,1.3-16,6.2-16,12.7c0,3.7,3.4,7.4,8.6,7.4c1.2,0,2.4,0,3.2-0.1V92c0-1.3,0-2.6-0.1-3.4h7.4c0,1.5,0,2.5,0,3.8V95.6z"/>
<path d="M220.4,102.9c-1.2,0-16-0.4-17.7-0.4c0.1-2.3,0.1-11.8,0.1-12.8v-5.9c0-0.7-0.1-11.3-0.1-12.4c1.9,0,15.4-0.7,16.9-0.8
	l0.2,5.7c-1.5,0-8.8,0.2-9.5,0.2v8c0.8,0,6-0.2,8.1-0.4l0.1,5.5c-1.1,0-7.3-0.2-8.2-0.2V97c1.1,0,7.4,0.1,10-0.1L220.4,102.9z"/>
</svg>
